<svg xmlns="http://www.w3.org/2000/svg" viewBox="0 0 961.02 1048.2"><defs><style>.cls-1{fill:#fff;}</style></defs><g id="Слой_2" data-name="Слой 2"><g id="Layer_1" data-name="Layer 1"><path class="cls-1" d="M338,1040.05,600.23,691.47H409.29a72,72,0,0,0-19.36,2.38,42.66,42.66,0,0,0-15.3,7.82q-6.79,5.45-12.9,17l.68-32.62H652.55L388.23,1034.61H596.15q17.65,0,28.19-4.42t22.09-21.4l-2,31.26Z"/><path class="cls-1" d="M668.84,963.27a76.53,76.53,0,0,1,15.29-46.55,182.76,182.76,0,0,1,37.37-37.37,286.12,286.12,0,0,1,47.22-28.88q25.13-12.22,44.85-21.06,14.94-6.12,27.86-12.23a171.49,171.49,0,0,0,23.78-13.59q7.47-5.43,12.57-16.31a42.6,42.6,0,0,0,4.41-21.06,185.78,185.78,0,0,0-4.41-34.66A85.51,85.51,0,0,0,865.89,703a56.83,56.83,0,0,0-22.43-19.37q-14.26-7.14-36-7.13a154.14,154.14,0,0,0-28.19,2.72,94,94,0,0,0-26.85,9.17,62.18,62.18,0,0,0-20.38,17q-8.16,10.54-8.15,26.84l.67,24.46q0,10.2-4.75,17.33t-16.3,7.13q-10.89,0-15.3-7.81A34.49,34.49,0,0,1,683.79,756q0-20.38,11.21-36a97.43,97.43,0,0,1,29.22-26.5,151.26,151.26,0,0,1,40.09-16.65,170.5,170.5,0,0,1,43.14-5.77,233.82,233.82,0,0,1,33,2.38,132.52,132.52,0,0,1,30.91,8.15,94.08,94.08,0,0,1,25.83,15.63,69.28,69.28,0,0,1,18.34,25.48q1.35,4.08,4.08,18.69t2.71,49.26V952.05q0,12.59.34,20.39t.68,12.23a29.9,29.9,0,0,0,1,6.46,56.26,56.26,0,0,0,9.85,23.09q7.14,9.53,22.77,9.52H961a103.17,103.17,0,0,1-25.48,17.67,68.06,68.06,0,0,1-30.24,6.79,46.54,46.54,0,0,1-19.71-4.07q-8.83-4.08-17.66-8.84a118,118,0,0,0-22.76-9.51,66.48,66.48,0,0,0-17.33-2.72,47.67,47.67,0,0,0-19.37,3.74q-8.51,3.73-17.32,8.15a161.74,161.74,0,0,1-19.71,8.16q-10.87,3.73-26.5,3.73-37.38,0-56.74-23.78T668.84,963.27ZM731.35,1004a85.11,85.11,0,0,0,22.43,17.32,54,54,0,0,0,46.2,2.38,79.14,79.14,0,0,1,15.29-4.76,71.48,71.48,0,0,1,13.25-1.35,59.79,59.79,0,0,1,22.42,4.07,159.54,159.54,0,0,1,19.71,9.51,79.88,79.88,0,0,0,11.89,6.12,73.08,73.08,0,0,0,12.57,4.08,3.57,3.57,0,0,1-1.7-1.36,10.57,10.57,0,0,0-1.7-2q-3.42-3.39-6.12-12.57t-3.4-26.84V796.79A111.07,111.07,0,0,1,853,817.52q-17,8.51-36.69,17.33A291.65,291.65,0,0,0,765,862.36q-26.16,17.34-42.12,39.07a82.83,82.83,0,0,0-16.65,47.9Q705.54,975.5,731.35,1004Z"/><path class="cls-1" d="M311.13,633.39q-2.38-11.22-2.38-37V302.82h-.68l-69.3,27.86c.44.45.78.68,1,.68s.56.23,1,.67c2.26.46,5.19,1.94,8.83,4.42s5.88,5.1,6.79,7.82a27.69,27.69,0,0,1,4.08,6.79c.9,2.27,1.8,4.75,2.72,7.47,0,1.36.67,3.4,2,6.12q1.35,9.53,2.37,30.23t1,53.34V596.35a319.64,319.64,0,0,1-2.38,37.71q-2.38,20.06-16,33.64H327.1A66.83,66.83,0,0,1,314.87,650Q313.49,644.6,311.13,633.39Z"/><path class="cls-1" d="M880.19,650.71q-2.72-7.47-4.42-21.06a275.51,275.51,0,0,1-1.69-33.3V430.56q0-49.59-8.16-70.67-12.23-30.57-33.29-44.16a82.42,82.42,0,0,0-45.53-13.59,118.89,118.89,0,0,0-46.88,9.51,163.41,163.41,0,0,0-41.11,25.14,180.89,180.89,0,0,0-33,36.35,191.31,191.31,0,0,0-22.43,43.15A241.51,241.51,0,0,0,639,376.54a124.37,124.37,0,0,0-13.25-36.35,77.21,77.21,0,0,0-25.14-26.84q-16-10.53-39.75-10.53a105.13,105.13,0,0,0-35.67,6.45,173.94,173.94,0,0,0-35,17.33,166.45,166.45,0,0,0-30.91,25.48,156.52,156.52,0,0,0-23.45,31.6,314.42,314.42,0,0,0-19.7,46.88q0-39.4,1-73.73t1-71a91.84,91.84,0,0,0-7.48-37.37,93,93,0,0,0-50.62-49.27,96.42,96.42,0,0,0-37-7.13,147.49,147.49,0,0,0-22.08,1.7,75.48,75.48,0,0,0-20.72,6.12,56.59,56.59,0,0,0-16.32,11.2,28.66,28.66,0,0,0-8.15,17,29.44,29.44,0,0,0,6.8,22.76,26.06,26.06,0,0,0,21.06,9.85,20.86,20.86,0,0,0,7.14-1.36,60.38,60.38,0,0,0,6.45-2.72,27.47,27.47,0,0,0,12.91-16q3.39-10.51,6.11-20.72a66.24,66.24,0,0,1,6.8-17q4.08-6.78,15-4.75,32.61,6.1,53.68,29.9t21.06,57.75A83.78,83.78,0,0,1,401.5,328a99.43,99.43,0,0,1-29.56,32.61A131.72,131.72,0,0,1,375,381.29q1,12.58,1.36,25.83t.34,25.82V596.35A294.2,294.2,0,0,1,374,634.06q-2.72,20.73-15.63,33.64h76.11a52.62,52.62,0,0,1-12.24-17q-2.72-4.74-4.41-15.63t-1.7-38.73v-144a265.46,265.46,0,0,1,9.17-32.95,167.48,167.48,0,0,1,15.29-32.28,124.48,124.48,0,0,1,18.69-25.48A142.1,142.1,0,0,1,483,341.21a121.64,121.64,0,0,1,26.5-13.59,77.84,77.84,0,0,1,26.83-5.1q22.44,0,36,11.89A76.75,76.75,0,0,1,593.11,364a146.92,146.92,0,0,1,9.52,38A325.66,325.66,0,0,1,605,439.39v157q0,23.11-.68,31.26c-.45,5.43-1.13,9.29-2,11.55q-4.06,18.35-16.3,28.54h77.46a37.74,37.74,0,0,1-12.23-15.63q-3.4-8.16-5.44-21.74a235.16,235.16,0,0,1-2-34V431.92a206.68,206.68,0,0,1,8.16-22.76,157.06,157.06,0,0,1,11.55-22.09,143,143,0,0,1,18.34-24.8,137.25,137.25,0,0,1,23.78-20.72,127.48,127.48,0,0,1,27.52-14.27A82.52,82.52,0,0,1,762,321.84q22.42,0,36.7,10.19a68.89,68.89,0,0,1,22.08,26.17,116.91,116.91,0,0,1,10.53,35.33,268.62,268.62,0,0,1,2.72,37V596.35q0,23.11-.34,31.94T832,641.2c-.63,2.1-1.34,4-2.09,5.91L817.78,649l-3.9,4.41a152.13,152.13,0,0,1,25.8-1.34c4.12.26,8.54.69,13.13,1.41l.66.09c11.9,1.92,24.66,5.76,35.24,13l1.67,1.1h3.4A45.21,45.21,0,0,1,880.19,650.71Z"/><path class="cls-1" d="M334.7,866.93a2.11,2.11,0,0,1,.89-.67,1.8,1.8,0,0,1,1,0,2.41,2.41,0,0,1,1.11.71c.39.38.84.82,1.37,1.3a13,13,0,0,0,1.92,1.44,9.4,9.4,0,0,0,2.8,1.11,9.18,9.18,0,0,0,2.71.26,5.76,5.76,0,0,0,2.12-.57,4.18,4.18,0,0,0,1.52-1.27,5.25,5.25,0,0,0,.84-1.89,3.5,3.5,0,0,0-.22-2.47,6.56,6.56,0,0,0-1.66-2.05,19.49,19.49,0,0,0-2.61-1.84c-1-.6-2-1.22-3-1.87s-2-1.37-3-2.13a12,12,0,0,1-2.42-2.63,9.12,9.12,0,0,1-1.35-3.35,10.34,10.34,0,0,1,.21-4.3A13.84,13.84,0,0,1,339,842a11.69,11.69,0,0,1,3.59-3.38,12.75,12.75,0,0,1,4.88-1.69,16.26,16.26,0,0,1,6,.38,19.43,19.43,0,0,1,3.58,1.24,18.91,18.91,0,0,1,3.21,1.86,18.08,18.08,0,0,1,2.71,2.35,15.46,15.46,0,0,1,2.07,2.71l-2.92,3a2.82,2.82,0,0,1-.87.47,1.81,1.81,0,0,1-1,0,2.72,2.72,0,0,1-1.33-.9c-.43-.49-.95-1-1.55-1.66a14.6,14.6,0,0,0-2.21-1.82,10,10,0,0,0-3.33-1.37,7.35,7.35,0,0,0-5.14.32,5.39,5.39,0,0,0-2.7,3.82,4,4,0,0,0,.17,2.68,6.37,6.37,0,0,0,1.65,2.11,16.36,16.36,0,0,0,2.61,1.81c1,.56,2,1.15,3.05,1.77a31.71,31.71,0,0,1,3,2.07,10.88,10.88,0,0,1,2.41,2.66,9.23,9.23,0,0,1,1.32,3.51,12,12,0,0,1-.3,4.66,11.06,11.06,0,0,1-5.16,6.94,12.64,12.64,0,0,1-4.6,1.55,14.82,14.82,0,0,1-5.63-.34,18.73,18.73,0,0,1-6.1-2.59,14.61,14.61,0,0,1-4.24-4.19Z"/><path class="cls-1" d="M315.54,826.84l7.09,2.35-12.59,38-7.1-2.36Z"/><path class="cls-1" d="M277.43,817.6a18.82,18.82,0,0,0-4.19-1.37,18.4,18.4,0,0,0-3.76-.3l-3,6.65,4.58,2a1.52,1.52,0,0,1,.87.83,1.3,1.3,0,0,1,0,1.06l-1.71,3.85-12.16-5.43,6.6-14.78a22,22,0,0,1,3.67-.47,20,20,0,0,1,3.76.21,26.83,26.83,0,0,1,4,.91,37.67,37.67,0,0,1,4.31,1.63,21,21,0,0,1,6.73,4.67,18.88,18.88,0,0,1,5.28,14.08,22.05,22.05,0,0,1-2,8.13,22.62,22.62,0,0,1-4.72,7,18.17,18.17,0,0,1-14.13,5.39,23.52,23.52,0,0,1-8.49-2.15,22.44,22.44,0,0,1-7.16-4.78,19.68,19.68,0,0,1-4-5.93l3.35-2.2a1.94,1.94,0,0,1,2-.25,2.53,2.53,0,0,1,1.06,1c.39.56.8,1.13,1.22,1.7a13.54,13.54,0,0,0,1.5,1.67,17.06,17.06,0,0,0,2,1.6,17.39,17.39,0,0,0,2.85,1.54,13.79,13.79,0,0,0,5.29,1.28,11.38,11.38,0,0,0,4.89-.94,12.91,12.91,0,0,0,4.19-3,17.5,17.5,0,0,0,3.21-4.94,18,18,0,0,0,1.62-6,13,13,0,0,0-.62-5.27,11.71,11.71,0,0,0-2.64-4.28A13.76,13.76,0,0,0,277.43,817.6Z"/><path class="cls-1" d="M225.52,829.9a1.79,1.79,0,0,1-.42-.45,1.86,1.86,0,0,1-.25-.57,5.82,5.82,0,0,1-.15-.82l-4-33.79c-.27.59-.56,1.16-.86,1.7s-.58,1-.86,1.5l-12.69,20.75-5.59-3.41,20.86-34.15,3.28,2a3.33,3.33,0,0,1,1.11,1,3.4,3.4,0,0,1,.45,1.44l4,33.65q.39-.79.81-1.56c.28-.51.54-1,.79-1.38l12.81-21,5.6,3.42-20.86,34.15-3.33-2A6.21,6.21,0,0,1,225.52,829.9Z"/><path class="cls-1" d="M146.53,745a22.21,22.21,0,0,1,6.57-5,19.13,19.13,0,0,1,7.41-2,18.64,18.64,0,0,1,7.61,1.13,21.54,21.54,0,0,1,7.16,4.42,21.83,21.83,0,0,1,5.11,6.7,18.86,18.86,0,0,1,1.88,7.48,19.34,19.34,0,0,1-1.29,7.59A23.46,23.46,0,0,1,170,777.3a19.19,19.19,0,0,1-7.43,2,18.77,18.77,0,0,1-7.63-1.14A23,23,0,0,1,142.71,767a18.91,18.91,0,0,1-1.86-7.46,19.1,19.1,0,0,1,1.3-7.57A22,22,0,0,1,146.53,745Zm5.66,5.13a18.8,18.8,0,0,0-3.32,5,12.52,12.52,0,0,0-1.13,5,10.65,10.65,0,0,0,1.07,4.73,13.52,13.52,0,0,0,3.25,4.26,13.75,13.75,0,0,0,4.57,2.84,10.85,10.85,0,0,0,4.84.61,12.41,12.41,0,0,0,4.86-1.59,20.14,20.14,0,0,0,7.93-8.75,12.34,12.34,0,0,0,1.1-5,10.92,10.92,0,0,0-1.09-4.75,13.9,13.9,0,0,0-3.27-4.27,13.61,13.61,0,0,0-4.55-2.82,10.9,10.9,0,0,0-4.81-.61,12.46,12.46,0,0,0-4.83,1.6A18.66,18.66,0,0,0,152.19,750.12Z"/><path class="cls-1" d="M114.88,740.11a2,2,0,0,1-.26-.56,1.8,1.8,0,0,1-.05-.62,6.15,6.15,0,0,1,.11-.83l6.89-33.32c-.45.48-.9.92-1.35,1.34s-.89.81-1.3,1.15L100.34,723l-4.23-5,30.57-25.83,2.48,2.94a3.49,3.49,0,0,1,.74,1.3,3.23,3.23,0,0,1,0,1.51L123,731.06l1.26-1.23c.43-.39.83-.75,1.19-1.05l18.78-15.87,4.23,5L117.9,743.75l-2.52-3A6.39,6.39,0,0,1,114.88,740.11Z"/><path class="cls-1" d="M68.06,637.18a21.68,21.68,0,0,1,7.76-2.72,18.2,18.2,0,0,1,14.29,4,22.53,22.53,0,0,1,5.36,6.47L103,658.19,68.22,678l-7.54-13.28a22.17,22.17,0,0,1-2.8-7.93,18.68,18.68,0,0,1,.42-7.59,18.45,18.45,0,0,1,3.46-6.71A21.54,21.54,0,0,1,68.06,637.18Zm3.76,6.62a18.41,18.41,0,0,0-4.7,3.69,12.48,12.48,0,0,0-2.6,4.37,10.91,10.91,0,0,0-.46,4.83,13.65,13.65,0,0,0,1.77,5.06l3.84,6.76L94.16,654.6l-3.84-6.77a13.63,13.63,0,0,0-3.45-4.1,10.8,10.8,0,0,0-4.38-2.08,12.45,12.45,0,0,0-5.09,0A18.3,18.3,0,0,0,71.82,643.8Z"/><path class="cls-1" d="M66.61,599.45a9.83,9.83,0,0,0-2.12-3.3,8.11,8.11,0,0,0-3-1.9,8.84,8.84,0,0,0-3.6-.47,13.18,13.18,0,0,0-4.08,1l-22.18,9.07L28.85,597,51,587.88a18.64,18.64,0,0,1,6.55-1.43,14.78,14.78,0,0,1,6.09,1.08,15.16,15.16,0,0,1,5.16,3.55,20.07,20.07,0,0,1,5.23,12.8,14.81,14.81,0,0,1-1.2,6.13,15,15,0,0,1-3.6,5,18.53,18.53,0,0,1-5.67,3.56L41.4,627.67l-2.81-6.89,22.16-9.06a13,13,0,0,0,3.6-2.15,9,9,0,0,0,2.26-2.85,7.75,7.75,0,0,0,.8-3.42A9.88,9.88,0,0,0,66.61,599.45Z"/><path class="cls-1" d="M60.07,564.13l-38.62,10.5-3.62-13.32a26.3,26.3,0,0,1-1-6.68,12.83,12.83,0,0,1,.86-5,8.23,8.23,0,0,1,2.55-3.4,11.26,11.26,0,0,1,4.05-2A8.68,8.68,0,0,1,27,544a7.73,7.73,0,0,1,2.67.61,9.6,9.6,0,0,1,2.54,1.6,13.28,13.28,0,0,1,2.33,2.68q-.37-8.45,6.44-10.3a11.52,11.52,0,0,1,4.79-.3A10.45,10.45,0,0,1,50.07,540a13.56,13.56,0,0,1,3.56,3.76,20.11,20.11,0,0,1,2.48,5.75ZM36.22,562.9l-1.56-5.74A9.89,9.89,0,0,0,31.81,552a5,5,0,0,0-4.76-.74q-3,.81-3.83,2.88c-.55,1.37-.49,3.26.17,5.69l1.67,6.14Zm5-1.35,11.32-3.07-2-7.3A10.63,10.63,0,0,0,49.14,548a6.13,6.13,0,0,0-1.87-1.81,4.91,4.91,0,0,0-2.19-.67,7.17,7.17,0,0,0-2.37.26,6.29,6.29,0,0,0-2.15,1,4.46,4.46,0,0,0-1.37,1.72,6.28,6.28,0,0,0-.48,2.49,12.63,12.63,0,0,0,.5,3.33Z"/><path class="cls-1" d="M43.69,483.62l.83,5.69a2.55,2.55,0,0,1-.25,1.65A2.84,2.84,0,0,1,43.21,492l-7.65,4.13,2.38,16.41,8.51,1.78a2.61,2.61,0,0,1,1.27.7,2.45,2.45,0,0,1,.75,1.5l.83,5.72-41.86-9.8-1.09-7.53Zm-11.23,27.8L30.63,498.8l-12.48,6.73c-.55.31-1.2.65-2,1s-1.58.76-2.47,1.15c1,.12,1.87.25,2.71.38s1.58.27,2.21.42Z"/><path class="cls-1" d="M42.56,459.87l.35,7.47-40,1.87-.35-7.47Z"/><path class="cls-1" d="M0,434.05a13,13,0,0,1,3.12-1.37,11.12,11.12,0,0,1,3.11-.4,10.7,10.7,0,0,1,5.26,1.49,16.09,16.09,0,0,1,4.58,4.11L14.73,440a.93.93,0,0,1-.41.38,1.08,1.08,0,0,1-.45.1,1.21,1.21,0,0,1-.88-.37c-.28-.25-.59-.51-1-.78a7.6,7.6,0,0,0-1.17-.76A7.24,7.24,0,0,0,9.45,438a6.2,6.2,0,0,0-1.65-.24,7.45,7.45,0,0,0-2,.27,9.61,9.61,0,0,0-2.27,1,1.2,1.2,0,0,1-.75.24,1.3,1.3,0,0,1-1.23-1.05Z"/><path class="cls-1" d="M12.66,390.93a2.16,2.16,0,0,1,.78.79,1.81,1.81,0,0,1,.16,1,2.46,2.46,0,0,1-.55,1.2q-.5.64-1.11,1.53a12.77,12.77,0,0,0-1.16,2.1,9.12,9.12,0,0,0-.72,2.92,8.84,8.84,0,0,0,.11,2.72,5.84,5.84,0,0,0,.85,2,4.16,4.16,0,0,0,1.47,1.33,5.31,5.31,0,0,0,2,.58,3.55,3.55,0,0,0,2.42-.56,6.42,6.42,0,0,0,1.8-1.92,18.67,18.67,0,0,0,1.47-2.83c.46-1.07.94-2.16,1.45-3.27a33.29,33.29,0,0,1,1.7-3.24,11.94,11.94,0,0,1,2.27-2.75,9,9,0,0,1,3.14-1.8,10.27,10.27,0,0,1,4.29-.37,13.87,13.87,0,0,1,5,1.41,11.84,11.84,0,0,1,3.84,3.1,12.78,12.78,0,0,1,2.33,4.61,16,16,0,0,1,.43,6,19.49,19.49,0,0,1-.73,3.71,19.92,19.92,0,0,1-1.41,3.43,18.32,18.32,0,0,1-2,3A15.76,15.76,0,0,1,38.07,418l-3.34-2.5a2.69,2.69,0,0,1-.58-.79,1.89,1.89,0,0,1-.17-1,2.77,2.77,0,0,1,.71-1.44c.43-.49.91-1.08,1.44-1.76a14.6,14.6,0,0,0,1.5-2.44,9.74,9.74,0,0,0,.91-3.49,7.24,7.24,0,0,0-1-5,5.4,5.4,0,0,0-4.14-2.16,4,4,0,0,0-2.64.54,6.32,6.32,0,0,0-1.87,1.91,16,16,0,0,0-1.43,2.84c-.42,1.07-.87,2.16-1.34,3.26a29.77,29.77,0,0,1-1.65,3.23,11.11,11.11,0,0,1-2.3,2.75,9.19,9.19,0,0,1-3.3,1.78,11.89,11.89,0,0,1-4.67.34A10.89,10.89,0,0,1,10,412.8a11.13,11.13,0,0,1-3.42-2.89,12.54,12.54,0,0,1-2.16-4.34A15,15,0,0,1,4,399.93a18.62,18.62,0,0,1,1.74-6.39,14.82,14.82,0,0,1,3.58-4.77Z"/><path class="cls-1" d="M20.16,318.47l5.73,1.5L21.4,337.13l11.46,3,3.79-14.48,5.76,1.5-3.79,14.49,15.77,4.12L52.49,353,13.78,342.89Z"/><path class="cls-1" d="M67.17,304.4l-2.52,7L27,297.92l2.53-7Z"/><path class="cls-1" d="M40.31,264a2.13,2.13,0,0,1,.41-.47,1.91,1.91,0,0,1,.55-.3,5.61,5.61,0,0,1,.8-.24l33.2-7.4c-.61-.21-1.2-.44-1.77-.68s-1.1-.48-1.58-.71L50,243.69l2.83-5.92L88.9,255l-1.66,3.47a3.24,3.24,0,0,1-.88,1.21,3.14,3.14,0,0,1-1.39.59L51.9,267.68c.56.2,1.11.42,1.64.64s1,.45,1.46.65l22.17,10.61-2.83,5.91-36.1-17.26,1.68-3.52A5.81,5.81,0,0,1,40.31,264Z"/><path class="cls-1" d="M78.13,195.7l5,3.16-9.49,15L83,219.79,90.5,208l4.84,3.07-7.48,11.8,9.56,6.06,9.49-15,5,3.19-13.5,21.32L64.63,217Z"/><path class="cls-1" d="M109.83,165.67a2.18,2.18,0,0,1,.24,1.09,1.81,1.81,0,0,1-.4.9,2.49,2.49,0,0,1-1.11.72c-.51.18-1.1.41-1.76.69a13,13,0,0,0-2.11,1.13,9.1,9.1,0,0,0-2.18,2.07,8.86,8.86,0,0,0-1.38,2.35,5.56,5.56,0,0,0-.38,2.17,4,4,0,0,0,.52,1.9,5.26,5.26,0,0,0,1.35,1.57,3.59,3.59,0,0,0,2.34.84,6.59,6.59,0,0,0,2.55-.65,18.68,18.68,0,0,0,2.77-1.59c1-.65,2-1.3,3-2a34.37,34.37,0,0,1,3.19-1.8,11.74,11.74,0,0,1,3.4-1.09,9.24,9.24,0,0,1,3.61.18,10.38,10.38,0,0,1,3.81,2,13.87,13.87,0,0,1,3.41,3.87,11.58,11.58,0,0,1,1.56,4.68,12.73,12.73,0,0,1-.53,5.14,16,16,0,0,1-2.86,5.25,19.35,19.35,0,0,1-2.62,2.73,20.07,20.07,0,0,1-3,2.13,17.94,17.94,0,0,1-3.27,1.47,15.54,15.54,0,0,1-3.34.74l-1.46-3.91a2.68,2.68,0,0,1-.06-1,1.8,1.8,0,0,1,.39-.91,2.65,2.65,0,0,1,1.37-.82c.63-.19,1.35-.42,2.16-.71a15,15,0,0,0,2.58-1.24,9.9,9.9,0,0,0,2.65-2.44,7.34,7.34,0,0,0,1.87-4.8,5.42,5.42,0,0,0-2.32-4,4,4,0,0,0-2.51-1,6.2,6.2,0,0,0-2.61.61,15.59,15.59,0,0,0-2.74,1.61c-.93.67-1.89,1.35-2.89,2a28.54,28.54,0,0,1-3.14,1.82,11,11,0,0,1-3.42,1.08,9.25,9.25,0,0,1-3.73-.29A11.69,11.69,0,0,1,98.61,186a11,11,0,0,1-4.12-7.6,12.53,12.53,0,0,1,.53-4.82,14.9,14.9,0,0,1,2.68-5,18.77,18.77,0,0,1,4.91-4.44,14.79,14.79,0,0,1,5.59-2.08Z"/><path class="cls-1" d="M139.29,123.17l4.38,4.26-8.4,8.63,24.28,23.66-5.19,5.33-24.28-23.66-8.44,8.66-4.39-4.27Z"/><path class="cls-1" d="M193.88,109l9.22,12.62-6,4.39-23.6-32.31,9.85-7.2a25.49,25.49,0,0,1,6.16-3.45,13.4,13.4,0,0,1,5.27-.92,9.31,9.31,0,0,1,4.36,1.32,12.21,12.21,0,0,1,3.45,3.26,11.92,11.92,0,0,1,1.77,3.43,10.89,10.89,0,0,1,.54,3.65,11.39,11.39,0,0,1-.71,3.71,14.5,14.5,0,0,1-2,3.64,7.42,7.42,0,0,1,3.32.42l16.81,6-5.41,4a3.18,3.18,0,0,1-1.55.65,3.35,3.35,0,0,1-1.58-.21l-14.36-5.39a2.94,2.94,0,0,0-1.44-.21,3.63,3.63,0,0,0-1.53.74Zm-3.15-4.32,3.75-2.74a11.1,11.1,0,0,0,2.65-2.59,7,7,0,0,0,1.23-2.69,6,6,0,0,0-.08-2.66A7.65,7.65,0,0,0,197,91.46a5.7,5.7,0,0,0-4.38-2.6q-2.58-.14-5.91,2.3L182.89,94Z"/><path class="cls-1" d="M237.86,52l2.94,5.14-15.4,8.8,5.51,9.64L243,68.59l2.85,5L233.76,80.5l5.62,9.83,15.4-8.81,3,5.16L235.82,99.21,216,64.48Z"/><path class="cls-1" d="M305.74,64.93l-5.3,2.26a2.43,2.43,0,0,1-1.65.18,2.71,2.71,0,0,1-1.3-.75l-6-6.33L276.29,66.8l.46,8.68a2.63,2.63,0,0,1-.35,1.41A2.44,2.44,0,0,1,275.15,78l-5.32,2.27-1.27-43,7-3ZM276,61.21l11.73-5L278,45.87c-.43-.45-.93-1-1.49-1.63s-1.15-1.33-1.76-2.1c.14,1,.25,1.88.34,2.72s.14,1.6.16,2.25Z"/><path class="cls-1" d="M325.61,52.2,341,47.6l1.76,5.88-22.48,6.75L308.74,21.9l7.13-2.14Z"/><path class="cls-1" d="M400.26,2.44,401,8.31l-17.58,2.35,1.47,11,13.85-1.85.76,5.68-13.85,1.85,1.5,11.22,17.59-2.35.79,5.89-25,3.35L375.24,5.79Z"/><path class="cls-1" d="M443.61,7.43a2.06,2.06,0,0,1-.68.88,1.72,1.72,0,0,1-.95.28,2.46,2.46,0,0,1-1.26-.39c-.47-.27-1-.58-1.66-.91a14.37,14.37,0,0,0-2.23-.89,9.07,9.07,0,0,0-3-.33,8.78,8.78,0,0,0-2.69.45,5.59,5.59,0,0,0-1.9,1.1,4,4,0,0,0-1.13,1.62,5.29,5.29,0,0,0-.33,2,3.55,3.55,0,0,0,.86,2.32,6.6,6.6,0,0,0,2.14,1.55,20.35,20.35,0,0,0,3,1.1c1.11.31,2.25.65,3.42,1a33,33,0,0,1,3.43,1.29,11.6,11.6,0,0,1,3,1.9,9.06,9.06,0,0,1,2.18,2.88,10.27,10.27,0,0,1,.91,4.21,13.64,13.64,0,0,1-.77,5.1,11.65,11.65,0,0,1-2.59,4.21,12.78,12.78,0,0,1-4.27,2.89,15.83,15.83,0,0,1-5.86,1.19,19.42,19.42,0,0,1-7.36-1.22,17.53,17.53,0,0,1-3.23-1.56A15.31,15.31,0,0,1,420,36.08l2-3.63a2.52,2.52,0,0,1,.71-.67,1.74,1.74,0,0,1,.95-.29,2.61,2.61,0,0,1,1.51.52c.55.36,1.19.76,1.93,1.2a14.46,14.46,0,0,0,2.61,1.18,10,10,0,0,0,3.57.46,7.28,7.28,0,0,0,4.88-1.66,5.41,5.41,0,0,0,1.61-4.38,4.05,4.05,0,0,0-.86-2.55,6.45,6.45,0,0,0-2.14-1.61,16.08,16.08,0,0,0-3-1.06c-1.12-.28-2.26-.58-3.41-.92A29.06,29.06,0,0,1,427,21.45a11.35,11.35,0,0,1-3-1.93,9.23,9.23,0,0,1-2.18-3.05,12,12,0,0,1-.93-4.58,11.1,11.1,0,0,1,3.18-8,12.53,12.53,0,0,1,4-2.69A14.79,14.79,0,0,1,433.58,0a18.62,18.62,0,0,1,6.56.91,14.91,14.91,0,0,1,5.19,2.94Z"/><path class="cls-1" d="M495.09,2.64l-.45,6.1-12-.89-2.49,33.82-7.42-.55,2.48-33.81-12.06-.89.45-6.1Z"/><path class="cls-1" d="M542.4,51.28l-5.65-1.09a2.5,2.5,0,0,1-1.48-.78,2.75,2.75,0,0,1-.65-1.35l-1.39-8.58L517,36.35l-4.48,7.45a2.66,2.66,0,0,1-1.08,1,2.44,2.44,0,0,1-1.66.21l-5.68-1.09,23-36.33L534.52,9ZM519.81,31.55,532.34,34l-2.26-14q-.17-.93-.33-2.19c-.11-.84-.21-1.74-.28-2.71-.43.87-.85,1.68-1.24,2.43s-.78,1.41-1.13,2Z"/><path class="cls-1" d="M596,25.83l-1.85,5.83L582.7,28,572.44,60.32l-7.1-2.25,10.27-32.31L564.08,22.1l1.85-5.83Z"/><path class="cls-1" d="M638,43.39l-2.4,5.41-16.22-7.16-4.49,10.15,12.79,5.64-2.32,5.24L612.53,57,608,67.38l16.22,7.17L621.78,80l-23.09-10.2,16.17-36.6Z"/><path class="cls-1" d="M697.48,102.05a21.79,21.79,0,0,1-5.71,5.91,18.75,18.75,0,0,1-6.95,3,18.45,18.45,0,0,1-7.61-.12,22.49,22.49,0,0,1-7.7-3.38l-12.7-8.49,22.24-33.27,12.7,8.49A22.1,22.1,0,0,1,697.81,80a18.65,18.65,0,0,1,3,7,18.32,18.32,0,0,1-.08,7.55A21.65,21.65,0,0,1,697.48,102.05Zm-6.33-4.23a18.32,18.32,0,0,0,2.55-5.4,12.54,12.54,0,0,0,.36-5.08,10.88,10.88,0,0,0-1.75-4.52,13.77,13.77,0,0,0-3.85-3.74L682,74.76,666.34,98.18l6.47,4.33a13.69,13.69,0,0,0,4.92,2.12,10.67,10.67,0,0,0,4.84-.11,12.38,12.38,0,0,0,4.56-2.28A18.24,18.24,0,0,0,691.15,97.82Z"/><path class="cls-1" d="M744.77,115.18l-3.85,4.5-13.49-11.52-7.2,8.44,10.63,9.08L727.14,130,716.51,121l-7.35,8.61,13.49,11.52-3.86,4.52-19.2-16.38,26-30.44Z"/><path class="cls-1" d="M755.52,183.4l-3.92-4.21a2.47,2.47,0,0,1-.73-1.49,2.67,2.67,0,0,1,.27-1.48l3.93-7.75-11.29-12.13-8,3.37a2.65,2.65,0,0,1-1.45.15,2.41,2.41,0,0,1-1.47-.8l-3.94-4.23,40-15.77,5.19,5.57Zm-6.59-29.25,8.69,9.34L764,150.85c.29-.56.63-1.22,1-2s.87-1.53,1.38-2.36c-.86.45-1.68.86-2.44,1.24s-1.45.67-2.06.91Z"/><path class="cls-1" d="M774.26,197.77l9.55,12.87-4.93,3.66-14-18.84L797,171.6l4.44,6Z"/><path class="cls-1" d="M827,229.59a2,2,0,0,1-1.1-.17,1.72,1.72,0,0,1-.7-.69,2.43,2.43,0,0,1-.27-1.29c0-.54,0-1.17,0-1.89a12.86,12.86,0,0,0-.31-2.38,9.08,9.08,0,0,0-1.16-2.77,8.88,8.88,0,0,0-1.7-2.13,6,6,0,0,0-1.89-1.13,4.28,4.28,0,0,0-2-.19,5.44,5.44,0,0,0-1.94.71,3.59,3.59,0,0,0-1.62,1.89,6.64,6.64,0,0,0-.3,2.62,18.6,18.6,0,0,0,.5,3.15q.39,1.69.78,3.48a34,34,0,0,1,.55,3.62,11.81,11.81,0,0,1-.19,3.57,9.14,9.14,0,0,1-1.46,3.3,10.16,10.16,0,0,1-3.23,2.85,13.75,13.75,0,0,1-4.83,1.81,11.69,11.69,0,0,1-4.93-.21,12.74,12.74,0,0,1-4.62-2.32,16.14,16.14,0,0,1-3.89-4.54,19,19,0,0,1-1.61-3.42,20.21,20.21,0,0,1-.91-3.6,18.07,18.07,0,0,1-.21-3.58,15.39,15.39,0,0,1,.5-3.38l4.17,0a2.6,2.6,0,0,1,.93.3,1.74,1.74,0,0,1,.72.68,2.63,2.63,0,0,1,.28,1.58c0,.65-.09,1.41-.11,2.27a14.8,14.8,0,0,0,.24,2.85A10,10,0,0,0,798,234a7.29,7.29,0,0,0,3.82,3.45,5.43,5.43,0,0,0,4.62-.73,4,4,0,0,0,1.8-2,6.37,6.37,0,0,0,.36-2.66,15.07,15.07,0,0,0-.53-3.13c-.3-1.11-.59-2.25-.85-3.42a28.45,28.45,0,0,1-.6-3.58,11,11,0,0,1,.22-3.58,9.05,9.05,0,0,1,1.6-3.39,11.7,11.7,0,0,1,3.54-3,10.9,10.9,0,0,1,4.11-1.44,11.11,11.11,0,0,1,4.47.29,12.55,12.55,0,0,1,4.31,2.21,14.91,14.91,0,0,1,3.69,4.28,18.64,18.64,0,0,1,2.4,6.17,14.74,14.74,0,0,1,0,6Z"/></g></g></svg>